#!OML:ASF F:\VICON\USERDATA\INSTALL\rory3\rory3.ASF
:FULLY-SPECIFIED
:DEGREES
412
root 0.0516273 17.5844 46.9383 -1.00512 3.13845 3.23339
lowerback 10.2691 -1.54656 -4.61081
upperback 0.0461931 -2.53756 1.19916
thorax -5.46162 -1.11071 4.23001
lowerneck -17.0649 -2.8954 -2.84672
upperneck 21.4998 -3.68736 1.73744
head 9.71899 -1.74663 0.58729
rclavicle 3.03395e-014 9.93923e-015
rhumerus -32.891 -22.0536 -76.0584
rradius 24.1546
rwrist 7.17884
rhand -16.5398 25.1593
rfingers 7.12502
rthumb 9.67937 -4.59834
lclavicle 3.03395e-014 9.93923e-015
lhumerus -19.3423 -8.64245 83.1382
lradius 32.3045
lwrist 8.75257
lhand -29.6347 21.5064
lfingers 7.12502
lthumb -2.96468 51.4655
rfemur -28.558 3.59828 16.8575
rtibia 17.2253
rfoot -11.5691 -11.5136
rtoes -2.71094
lfemur 15.1642 -3.63324 -28.2527
ltibia 17.6647
lfoot -15.108 -1.03858
ltoes -19.4957
413
root 0.0156474 17.5717 47.157 -1.06493 2.75357 2.87121
lowerback 9.58426 -1.40296 -4.63149
upperback 0.361652 -2.30117 1.39694
thorax -4.76032 -1.0203 4.38017
lowerneck -16.8782 -3.15657 -3.39773
upperneck 20.7526 -4.07286 2.50297
head 9.46159 -1.88602 0.89652
rclavicle -2.5345e-015 -5.56597e-015
rhumerus -32.7505 -22.5445 -75.8298
rradius 23.8869
rwrist 7.54
rhand -16.5133 24.8023
rfingers 7.12502
rthumb 9.70498 -4.95414
lclavicle -2.5345e-015 -5.56597e-015
lhumerus -19.0452 -8.72642 83.1994
lradius 32.6764
lwrist 8.91421
lhand -30.619 20.8874
lfingers 7.12502
lthumb -3.91523 50.8312
rfemur -28.7539 3.76116 17.7313
rtibia 18.9628
rfoot -11.5148 -10.6593
rtoes -2.0491
lfemur 15.2876 -3.61801 -27.8395
ltibia 18.6572
lfoot -14.3709 -1.32111
ltoes -18.9441
414
root -0.00920754 17.5442 47.368 -1.14773 2.51662 2.4961
lowerback 9.59603 -1.29706 -4.29717
upperback 0.379359 -2.11816 1.51084
thorax -4.77546 -0.935939 4.28752
lowerneck -16.9794 -2.85458 -2.90622
upperneck 21.0479 -3.62754 1.82804
head 9.54541 -1.71473 0.639219
rclavicle -1.74931e-014 -5.1684e-015
rhumerus -33.0524 -22.8905 -75.5457
rradius 23.784
rwrist 7.85588
rhand -16.6039 24.7056
rfingers 7.12502
rthumb 9.61751 -5.05483
lclavicle -1.74931e-014 -5.1684e-015
lhumerus -18.9326 -8.83395 83.2834
lradius 32.6402
lwrist 8.82224
lhand -29.5696 20.6791
lfingers 7.12502
lthumb -2.90181 50.6391
rfemur -28.9383 3.84606 18.5825
rtibia 20.7882
rfoot -10.973 -10.3117
rtoes -3.50489
lfemur 15.8954 -3.57026 -27.399
ltibia 19.4807
lfoot -13.8165 -1.24426
ltoes -21.3528
415
root -0.0240161 17.5643 47.5738 -1.17997 2.56918 2.26964
lowerback 9.55671 -1.34955 -4.07161
upperback 0.47675 -2.15581 1.60552
thorax -4.65167 -0.964011 4.26004
lowerneck -17.5396 -3.08995 -3.44868
upperneck 21.155 -3.93774 2.43787
head 9.72087 -1.82693 0.891441
rclavicle 3.42904e-015 5.56597e-015
rhumerus -32.8948 -23.3186 -75.3727
rradius 23.3079
rwrist 8.1536
rhand -16.6569 25.3689
rfingers 7.12502
rthumb 9.56636 -4.39392
lclavicle 3.42904e-015 5.56597e-015
lhumerus -18.7868 -8.59417 83.3203
lradius 32.7429
lwrist 8.69171
lhand -28.5332 20.9458
lfingers 7.12502
lthumb -1.9009 50.9171
rfemur -29.0282 3.94547 19.01
rtibia 22.2306
rfoot -9.85799 -9.81782
rtoes -5.66058
lfemur 15.8845 -3.96517 -27.1593
ltibia 20.5084
lfoot -12.8077 -2.03071
ltoes -20.5287
416
root -0.0345947 17.5835 47.7832 -1.14448 2.86898 2.24468
lowerback 9.20801 -1.50253 -4.04899
upperback 0.624835 -2.33966 1.66013
thorax -4.28106 -1.06869 4.30875
lowerneck -19.3579 -4.33759 -4.69976
upperneck 22.3881 -5.52188 3.37793
head 10.6274 -2.52173 1.17109
rclavicle -7.85199e-015 -1.66979e-014
rhumerus -32.696 -23.2459 -75.3978
rradius 23.0826
rwrist 7.97122
rhand -16.707 25.9394
rfingers 7.12502
rthumb 9.51805 -3.82564
lclavicle -7.85199e-015 -1.66979e-014
lhumerus -18.6409 -8.46027 83.4044
lradius 32.7943
lwrist 8.93597
lhand -29.7831 20.4768
lfingers 7.12502
lthumb -3.10797 50.4339
rfemur -29.2922 4.04704 18.9528
rtibia 23.5467
rfoot -8.51113 -9.26563
rtoes -6.06278
lfemur 16.0166 -4.57308 -27.1715
ltibia 21.5482
lfoot -11.7863 -2.46091
ltoes -19.9729
417
root -0.0344196 17.5989 47.9953 -1.27434 3.28799 2.15676
lowerback 9.89004 -1.65729 -3.66978
upperback 0.0563899 -2.53506 1.64331
thorax -5.25697 -1.13546 4.14822
lowerneck -17.0683 -3.17262 -3.40271
upperneck 21.4733 -4.00759 2.09319
head 9.73945 -1.89964 0.759679
rclavicle 9.7653e-015 1.66979e-014
rhumerus -33.8445 -23.1056 -74.8485
rradius 22.8971
rwrist 8.03147
rhand -16.909 25.8095
rfingers 7.12502
rthumb 9.32313 -3.96434
lclavicle 9.7653e-015 1.66979e-014
lhumerus -19.6854 -8.42518 83.7357
lradius 32.7689
lwrist 8.97334
lhand -29.4912 21.5198
lfingers 7.12502
lthumb -2.82612 51.4808
rfemur -29.1908 3.84674 18.9157
rtibia 24.4977
rfoot -7.84299 -8.69962
rtoes -4.80796
lfemur 16.1373 -5.17403 -27.1896
ltibia 22.8603
lfoot -10.6707 -2.95272
ltoes -19.014
